<svg xmlns="http://www.w3.org/2000/svg" width="33" height="33" viewBox="0 0 33 33" fill="none">
<path d="M19.25 17.1875H17.875V15.8125C17.875 15.4479 17.7301 15.0981 17.4723 14.8403C17.2144 14.5824 16.8647 14.4375 16.5 14.4375C16.1353 14.4375 15.7856 14.5824 15.5277 14.8403C15.2699 15.0981 15.125 15.4479 15.125 15.8125V17.1875H13.75C13.3853 17.1875 13.0356 17.3324 12.7777 17.5903C12.5199 17.8481 12.375 18.1979 12.375 18.5625C12.375 18.9272 12.5199 19.2769 12.7777 19.5348C13.0356 19.7927 13.3853 19.9375 13.75 19.9375H15.125V21.3125C15.125 21.6772 15.2699 22.0269 15.5277 22.2848C15.7856 22.5427 16.1353 22.6875 16.5 22.6875C16.8647 22.6875 17.2144 22.5427 17.4723 22.2848C17.7301 22.0269 17.875 21.6772 17.875 21.3125V19.9375H19.25C19.6147 19.9375 19.9644 19.7927 20.2223 19.5348C20.4801 19.2769 20.625 18.9272 20.625 18.5625C20.625 18.1979 20.4801 17.8481 20.2223 17.5903C19.9644 17.3324 19.6147 17.1875 19.25 17.1875ZM26.125 7.56253H17.49L17.05 6.18753C16.7648 5.38072 16.2357 4.6826 15.536 4.18988C14.8363 3.69716 14.0007 3.43423 13.145 3.43753H6.875C5.78098 3.43753 4.73177 3.87213 3.95818 4.64572C3.1846 5.4193 2.75 6.46851 2.75 7.56253V25.4375C2.75 26.5315 3.1846 27.5808 3.95818 28.3543C4.73177 29.1279 5.78098 29.5625 6.875 29.5625H26.125C27.219 29.5625 28.2682 29.1279 29.0418 28.3543C29.8154 27.5808 30.25 26.5315 30.25 25.4375V11.6875C30.25 10.5935 29.8154 9.5443 29.0418 8.77072C28.2682 7.99713 27.219 7.56253 26.125 7.56253ZM27.5 25.4375C27.5 25.8022 27.3551 26.1519 27.0973 26.4098C26.8394 26.6677 26.4897 26.8125 26.125 26.8125H6.875C6.51033 26.8125 6.16059 26.6677 5.90273 26.4098C5.64487 26.1519 5.5 25.8022 5.5 25.4375V7.56253C5.5 7.19786 5.64487 6.84812 5.90273 6.59026C6.16059 6.3324 6.51033 6.18753 6.875 6.18753H13.145C13.4333 6.18679 13.7145 6.27666 13.9489 6.44444C14.1833 6.61222 14.359 6.84943 14.4513 7.12253L15.1938 9.37753C15.286 9.65063 15.4617 9.88784 15.6961 10.0556C15.9305 10.2234 16.2117 10.3133 16.5 10.3125H26.125C26.4897 10.3125 26.8394 10.4574 27.0973 10.7153C27.3551 10.9731 27.5 11.3229 27.5 11.6875V25.4375Z" fill="#674DFF"/>
</svg>