<svg xmlns="http://www.w3.org/2000/svg" width="24" height="24" viewBox="0 0 24 24" fill="none">
<g clip-path="url(#clip0_77_3260)">
<path d="M6.7575 19.4325L6.62625 19.3763L5.8575 23.1788L9.645 22.1513L9.5775 22.02C8.9475 20.8125 8.025 19.965 6.7575 19.4325ZM23.265 4.69504C22.8375 4.30129 22.275 4.08379 21.69 4.08379C21.0487 4.08379 20.4338 4.35004 19.9988 4.81129L19.8225 4.99504L23.205 8.11129L23.385 7.91629C23.8088 7.47004 24.0263 6.88879 24 6.28129C23.9775 5.67754 23.7188 5.11504 23.265 4.69504ZM7.17375 18.435L7.32375 18.5025C8.7 19.1175 9.7575 20.0963 10.47 21.4088L10.5487 21.5513L22.455 8.90254L19.0763 5.79004L7.17375 18.435ZM6.345 14.2838C6.345 14.7113 6.69375 15.06 7.125 15.06C7.5525 15.06 7.905 14.7113 7.905 14.2838V8.71879H13.47C13.8975 8.71879 14.25 8.37004 14.25 7.93879C14.25 7.51129 13.9012 7.16254 13.47 7.16254H7.90125V1.59754C7.90125 1.17004 7.5525 0.821289 7.12125 0.821289C6.69375 0.821289 6.34125 1.17004 6.34125 1.59754V7.16254H0.78C0.34875 7.16254 0 7.51129 0 7.93879C0 8.36629 0.34875 8.71879 0.78 8.71879H6.345V14.2838Z" fill="#674DFF"/>
</g>
<defs>
<clipPath id="clip0_77_3260">
<rect width="24" height="24" fill="white"/>
</clipPath>
</defs>
</svg>