<svg width="957" height="464" viewBox="0 0 957 464" fill="none" xmlns="http://www.w3.org/2000/svg">
<path d="M21 295.705V213.114L154 199V314L21 295.705Z" fill="#A9B634" fill-opacity="0.62"/>
<path d="M190.04 27.8182V86H184.727V27.8182H190.04ZM232.554 86H215.509V27.8182H233.577C239.126 27.8182 243.87 28.9735 247.81 31.2841C251.768 33.5947 254.798 36.9091 256.901 41.2273C259.003 45.5455 260.054 50.7254 260.054 56.767C260.054 62.8655 258.974 68.1023 256.815 72.4773C254.675 76.8333 251.55 80.1761 247.44 82.5057C243.349 84.8352 238.387 86 232.554 86ZM220.821 81.2273H232.241C237.241 81.2273 241.427 80.2424 244.798 78.2727C248.17 76.303 250.698 73.4905 252.384 69.8352C254.069 66.1799 254.912 61.8239 254.912 56.767C254.893 51.7481 254.06 47.4299 252.412 43.8125C250.783 40.1951 248.359 37.4205 245.139 35.4886C241.938 33.5568 237.98 32.5909 233.264 32.5909H220.821V81.2273ZM280.281 86H274.713L295.878 27.8182H301.56L322.724 86H317.156L298.918 34.7216H298.52L280.281 86ZM284.287 63.6989H313.151V68.4716H284.287V63.6989ZM342.696 86V27.8182H348.009V54.4943H381.02V27.8182H386.332V86H381.02V59.267H348.009V86H342.696ZM459.457 56.9091C459.457 62.9697 458.378 68.2443 456.219 72.733C454.06 77.2027 451.086 80.6686 447.298 83.1307C443.529 85.5739 439.192 86.7955 434.287 86.7955C429.382 86.7955 425.035 85.5739 421.247 83.1307C417.478 80.6686 414.514 77.2027 412.355 72.733C410.215 68.2443 409.145 62.9697 409.145 56.9091C409.145 50.8485 410.215 45.5833 412.355 41.1136C414.514 36.625 417.488 33.1591 421.276 30.7159C425.063 28.2538 429.401 27.0227 434.287 27.0227C439.192 27.0227 443.529 28.2538 447.298 30.7159C451.086 33.1591 454.06 36.625 456.219 41.1136C458.378 45.5833 459.457 50.8485 459.457 56.9091ZM454.287 56.9091C454.287 51.7008 453.416 47.2405 451.673 43.5284C449.931 39.7973 447.554 36.947 444.543 34.9773C441.531 33.0076 438.113 32.0227 434.287 32.0227C430.48 32.0227 427.071 33.0076 424.06 34.9773C421.048 36.947 418.662 39.7879 416.901 43.5C415.158 47.2121 414.287 51.6818 414.287 56.9091C414.287 62.1174 415.158 66.5777 416.901 70.2898C418.643 74.0019 421.02 76.8523 424.031 78.8409C427.043 80.8106 430.461 81.7955 434.287 81.7955C438.113 81.7955 441.531 80.8106 444.543 78.8409C447.573 76.8712 449.959 74.0303 451.702 70.3182C453.444 66.5871 454.306 62.1174 454.287 56.9091ZM256.062 204H231.375V124H257.156C264.917 124 271.557 125.602 277.078 128.805C282.599 131.982 286.831 136.552 289.773 142.516C292.716 148.453 294.188 155.562 294.188 163.844C294.188 172.177 292.703 179.352 289.734 185.367C286.766 191.357 282.443 195.966 276.766 199.195C271.089 202.398 264.188 204 256.062 204ZM241.063 195.406H255.438C262.052 195.406 267.534 194.13 271.883 191.578C276.232 189.026 279.474 185.393 281.609 180.68C283.745 175.966 284.812 170.354 284.812 163.844C284.812 157.385 283.758 151.826 281.648 147.164C279.539 142.477 276.388 138.883 272.195 136.383C268.003 133.857 262.781 132.594 256.531 132.594H241.063V195.406ZM333.875 124V204H324.188V124H333.875ZM421.736 149C420.877 146.37 419.744 144.013 418.338 141.93C416.958 139.82 415.304 138.023 413.377 136.539C411.476 135.055 409.314 133.922 406.893 133.141C404.471 132.359 401.814 131.969 398.924 131.969C394.184 131.969 389.874 133.193 385.994 135.641C382.114 138.089 379.028 141.695 376.736 146.461C374.445 151.227 373.299 157.073 373.299 164C373.299 170.927 374.458 176.773 376.775 181.539C379.093 186.305 382.231 189.911 386.189 192.359C390.148 194.807 394.601 196.031 399.549 196.031C404.132 196.031 408.169 195.055 411.658 193.102C415.174 191.122 417.908 188.336 419.861 184.742C421.84 181.122 422.83 176.865 422.83 171.969L425.799 172.594H401.736V164H432.205V172.594C432.205 179.182 430.799 184.911 427.986 189.781C425.2 194.651 421.346 198.427 416.424 201.109C411.528 203.766 405.903 205.094 399.549 205.094C392.465 205.094 386.242 203.427 380.877 200.094C375.538 196.76 371.372 192.021 368.377 185.875C365.408 179.729 363.924 172.437 363.924 164C363.924 157.672 364.77 151.982 366.463 146.93C368.182 141.852 370.604 137.529 373.729 133.961C376.854 130.393 380.551 127.659 384.822 125.758C389.093 123.857 393.794 122.906 398.924 122.906C403.143 122.906 407.075 123.544 410.721 124.82C414.393 126.07 417.661 127.854 420.525 130.172C423.416 132.464 425.825 135.211 427.752 138.414C429.679 141.591 431.007 145.12 431.736 149H421.736ZM472.234 124V204H462.547V124H472.234ZM501.033 132.594V124H561.033V132.594H535.877V204H526.189V132.594H501.033ZM583.67 204H573.514L602.889 124H612.889L642.264 204H632.107L608.201 136.656H607.576L583.67 204ZM587.42 172.75H628.357V181.344H587.42V172.75ZM668.475 204V124H678.162V195.406H715.35V204H668.475ZM320.75 322V242H330.438V313.406H367.625V322H320.75ZM396.375 322V242H444.656V250.594H406.063V277.625H442.156V286.219H406.063V313.406H445.281V322H396.375ZM479.148 322H468.992L498.367 242H508.367L537.742 322H527.586L503.68 254.656H503.055L479.148 322ZM482.898 290.75H523.836V299.344H482.898V290.75ZM563.953 322V242H590.984C597.234 242 602.365 243.068 606.375 245.203C610.385 247.312 613.354 250.216 615.281 253.914C617.208 257.612 618.172 261.818 618.172 266.531C618.172 271.245 617.208 275.424 615.281 279.07C613.354 282.716 610.398 285.581 606.414 287.664C602.43 289.721 597.339 290.75 591.141 290.75H569.266V282H590.828C595.099 282 598.536 281.375 601.141 280.125C603.771 278.875 605.672 277.104 606.844 274.812C608.042 272.495 608.641 269.734 608.641 266.531C608.641 263.328 608.042 260.529 606.844 258.133C605.646 255.737 603.732 253.888 601.102 252.586C598.471 251.258 594.995 250.594 590.672 250.594H573.641V322H563.953ZM601.609 286.062L621.297 322H610.047L590.672 286.062H601.609ZM711.502 242V322H702.127L658.533 259.187H657.752V322H648.064V242H657.439L701.189 304.969H701.971V242H711.502ZM754.324 242V322H744.637V242H754.324ZM850.936 242V322H841.561L797.967 259.187H797.186V322H787.498V242H796.873L840.623 304.969H841.404V242H850.936ZM938.758 267C937.898 264.37 936.766 262.013 935.359 259.93C933.979 257.82 932.326 256.023 930.398 254.539C928.497 253.055 926.336 251.922 923.914 251.141C921.492 250.359 918.836 249.969 915.945 249.969C911.206 249.969 906.896 251.193 903.016 253.641C899.135 256.089 896.049 259.695 893.758 264.461C891.466 269.227 890.32 275.073 890.32 282C890.32 288.927 891.479 294.773 893.797 299.539C896.115 304.305 899.253 307.911 903.211 310.359C907.169 312.807 911.622 314.031 916.57 314.031C921.154 314.031 925.19 313.055 928.68 311.102C932.195 309.122 934.93 306.336 936.883 302.742C938.862 299.122 939.852 294.865 939.852 289.969L942.82 290.594H918.758V282H949.227V290.594C949.227 297.182 947.82 302.911 945.008 307.781C942.221 312.651 938.367 316.427 933.445 319.109C928.549 321.766 922.924 323.094 916.57 323.094C909.487 323.094 903.263 321.427 897.898 318.094C892.56 314.76 888.393 310.021 885.398 303.875C882.43 297.729 880.945 290.437 880.945 282C880.945 275.672 881.792 269.982 883.484 264.93C885.203 259.852 887.625 255.529 890.75 251.961C893.875 248.393 897.573 245.659 901.844 243.758C906.115 241.857 910.815 240.906 915.945 240.906C920.164 240.906 924.096 241.544 927.742 242.82C931.414 244.07 934.682 245.854 937.547 248.172C940.438 250.464 942.846 253.211 944.773 256.414C946.701 259.591 948.029 263.12 948.758 267H938.758ZM412.312 436H406.744L427.909 377.818H433.591L454.756 436H449.188L430.949 384.722H430.551L412.312 436ZM416.318 413.699H445.182V418.472H416.318V413.699ZM474.727 436V377.818H480.04V431.227H507.767V436H474.727ZM529.727 436V377.818H535.04V431.227H562.767V436H529.727ZM590.04 377.818V436H584.727V377.818H590.04ZM615.594 436H610.026L631.19 377.818H636.872L658.037 436H652.469L634.23 384.722H633.832L615.594 436ZM619.599 413.699H648.463V418.472H619.599V413.699ZM723.321 377.818V436H718.151L683.776 387.278H683.321V436H678.009V377.818H683.151L717.639 426.597H718.094V377.818H723.321ZM794.358 396H789.017C788.619 394.011 787.9 392.174 786.858 390.489C785.835 388.784 784.547 387.297 782.994 386.028C781.441 384.759 779.68 383.775 777.71 383.074C775.741 382.373 773.61 382.023 771.318 382.023C767.644 382.023 764.292 382.979 761.261 384.892C758.25 386.805 755.835 389.617 754.017 393.33C752.218 397.023 751.318 401.549 751.318 406.909C751.318 412.307 752.218 416.852 754.017 420.545C755.835 424.239 758.25 427.042 761.261 428.955C764.292 430.848 767.644 431.795 771.318 431.795C773.61 431.795 775.741 431.445 777.71 430.744C779.68 430.044 781.441 429.068 782.994 427.818C784.547 426.549 785.835 425.062 786.858 423.358C787.9 421.653 788.619 419.807 789.017 417.818H794.358C793.884 420.489 792.994 422.979 791.688 425.29C790.4 427.581 788.752 429.589 786.744 431.312C784.756 433.036 782.464 434.381 779.869 435.347C777.275 436.312 774.424 436.795 771.318 436.795C766.432 436.795 762.095 435.574 758.307 433.131C754.519 430.669 751.545 427.203 749.386 422.733C747.246 418.263 746.176 412.989 746.176 406.909C746.176 400.83 747.246 395.555 749.386 391.085C751.545 386.616 754.519 383.159 758.307 380.716C762.095 378.254 766.432 377.023 771.318 377.023C774.424 377.023 777.275 377.506 779.869 378.472C782.464 379.419 784.756 380.763 786.744 382.506C788.752 384.229 790.4 386.237 791.688 388.528C792.994 390.82 793.884 393.311 794.358 396ZM816.837 436V377.818H850.587V382.591H822.149V404.494H848.797V409.267H822.149V431.227H851.155V436H816.837Z" fill="black"/>
<path d="M96 332V256.046V242L177 256.046V321.595L96 332Z" fill="#A9B634"/>
<path d="M0 273V440L208 413.824V301.27L0 273Z" fill="#C3CB79" fill-opacity="0.63"/>
<path d="M245.564 346.888L257 426.883L139 441V338L245.564 346.888Z" fill="#A9B634" fill-opacity="0.6"/>
<path d="M249.412 270L192 278.937L198.847 353.063L261 362L249.412 270Z" fill="#9BAC31" fill-opacity="0.65"/>
<path d="M110 111.035L14 98V232L110 217.922V111.035Z" fill="#A9B634" fill-opacity="0.67"/>
<path d="M8 68.4737V19L46 29.5263V79L8 68.4737Z" fill="#C3CB79"/>
<path d="M2 112V59L67 70.5446V112H2Z" fill="#A9B634" fill-opacity="0.83"/>
</svg>
